# xmcd CD database file
#
# Track frame offsets:
#	150
#	14103
#	32940
#	50868
#	70154
#	83584
#	97599
#	108626
#	123484
#	139532
#	154646
#	170148
#
# Disc length: 2468 seconds
#
# Revision: 0
# Processed by: cddbd v1.5.2PL0 Copyright (c) Steve Scherf et al.
# Submitted via: CDex 1.51
#
DISCID=a109a20c
DTITLE=Grayson Wood - The Ghost of Chris LeDoux
DYEAR=2011
DGENRE=Country
TTITLE0=The Ghost of Chris LeDoux
TTITLE1=Southwind
TTITLE2=Angels
TTITLE3=Avery Phillips
TTITLE4=Missouri Red Legs
TTITLE5=Sarah Ann
TTITLE6=Another Marine
TTITLE7=Hwy 79
TTITLE8=Rain
TTITLE9=Wal;tzin' with the Devil
TTITLE10=Diamonds and Rubies
TTITLE11=The Ghost of Chris LeDoux
EXTD=YEAR: 2011
EXTT0=
EXTT1=
EXTT2=
EXTT3=
EXTT4=
EXTT5=
EXTT6=
EXTT7=
EXTT8=
EXTT9=
EXTT10=
EXTT11=
PLAYORDER=
